<?xml version="1.0" standalone="no"?>
<!DOCTYPE svg PUBLIC "-//W3C//DTD SVG 20010904//EN"
 "http://www.w3.org/TR/2001/REC-SVG-20010904/DTD/svg10.dtd">
<svg version="1.0" xmlns="http://www.w3.org/2000/svg"
 width="1206.000000pt" height="1280.000000pt" viewBox="0 0 1206.000000 1280.000000"
 preserveAspectRatio="xMidYMid meet">
<metadata>
Created by potrace 1.15, written by Peter Selinger 2001-2017
</metadata>
<g transform="translate(0.000000,1280.000000) scale(0.100000,-0.100000)"
fill="#4caf50" stroke="none">
<path d="M5850 12790 c-266 -56 -651 -113 -885 -130 -261 -19 -587 -11 -1028
25 -98 8 -185 15 -193 15 -10 0 -1 -17 27 -47 388 -438 595 -700 754 -958 233
-377 311 -704 284 -1190 -17 -315 -32 -399 -110 -622 -91 -258 -104 -327 -73
-371 25 -36 67 -51 237 -87 290 -60 368 -68 597 -61 255 7 266 9 279 49 17 48
13 236 -14 597 -71 963 -59 1323 71 2165 20 127 51 316 70 420 19 105 34 193
34 198 0 8 0 8 -50 -3z"/>
<path d="M9415 12453 c-88 -30 -504 -171 -925 -313 -1089 -368 -1158 -391
-1330 -455 -639 -236 -857 -481 -934 -1046 -8 -57 -17 -140 -21 -184 -6 -89
-55 -977 -55 -1014 0 -23 1 -23 83 -16 395 31 713 84 1110 185 296 75 527 163
732 277 637 355 956 844 1358 2088 48 147 157 514 157 527 0 12 -2 11 -175
-49z"/>
<path d="M2325 9554 c-601 -46 -1036 -233 -1405 -603 -298 -300 -531 -719
-688 -1241 -62 -203 -93 -341 -131 -580 -73 -450 -96 -754 -96 -1245 1 -730
55 -1121 223 -1630 169 -509 465 -1104 815 -1639 699 -1068 1350 -1779 2000
-2184 423 -263 797 -364 1289 -348 270 9 522 52 1208 207 446 101 450 102 740
103 242 0 262 -1 390 -27 250 -52 618 -151 1045 -282 211 -64 300 -79 490 -79
177 -1 262 12 420 65 191 64 456 215 665 378 321 249 768 714 1165 1211 861
1076 1358 2152 1524 3295 59 408 76 649 75 1100 -1 591 -49 1029 -164 1502
-253 1037 -749 1620 -1540 1808 -205 48 -330 60 -655 60 -347 0 -432 -8 -855
-75 -168 -27 -478 -76 -690 -110 -212 -33 -439 -69 -505 -80 -918 -148 -1084
-170 -1415 -190 -432 -26 -887 1 -1371 80 -331 55 -616 124 -1446 351 -410
112 -598 144 -893 152 -80 3 -167 3 -195 1z m7620 -719 c564 -85 1001 -472
1303 -1155 140 -318 244 -738 282 -1148 14 -148 14 -504 0 -657 -30 -328 -114
-697 -230 -1010 -64 -170 -93 -234 -98 -213 -2 9 13 103 32 210 42 228 81 496
97 663 15 156 16 529 0 675 -51 499 -193 980 -427 1449 -107 215 -228 420
-309 527 -179 233 -442 398 -725 453 -311 62 -528 56 -1305 -34 -110 -12 -201
-21 -203 -20 -5 5 353 121 458 148 221 58 378 87 655 120 86 11 379 6 470 -8z"/>
</g>
</svg>
